<svg width="101" height="101" viewBox="0 0 101 101" fill="none" xmlns="http://www.w3.org/2000/svg">
<g clip-path="url(#clip0_101_7)">
<g clip-path="url(#clip1_101_7)">
<rect x="1" y="1" width="100" height="100" rx="10" fill="#6F13EB"/>
<path d="M47.5209 78V71.4306C44.8218 70.8194 42.4925 69.6481 40.5328 67.9167C38.5712 66.1852 37.132 63.7407 36.2153 60.5833L41.8681 58.2917C42.632 60.7361 43.7656 62.5949 45.269 63.8681C46.7703 65.1412 48.7431 65.7778 51.1876 65.7778C53.2755 65.7778 55.0457 65.3072 56.4981 64.3661C57.9485 63.423 58.6737 61.9583 58.6737 59.9722C58.6737 58.1898 58.1135 56.7761 56.9931 55.7311C55.8728 54.6881 53.2755 53.5046 49.2015 52.1806C44.8218 50.8056 41.8172 49.1637 40.1876 47.255C38.5579 45.3443 37.7431 43.0139 37.7431 40.2639C37.7431 36.9537 38.8126 34.3819 40.9514 32.5486C43.0903 30.7153 45.2802 29.6713 47.5209 29.4167V23H53.632V29.4167C56.1783 29.8241 58.2795 30.753 59.9356 32.2033C61.5897 33.6557 62.7987 35.4259 63.5626 37.5139L57.9098 39.9583C57.2987 38.3287 56.4329 37.1065 55.3126 36.2917C54.1922 35.4769 52.6644 35.0694 50.7292 35.0694C48.4885 35.0694 46.7825 35.5665 45.6112 36.5606C44.4399 37.5526 43.8542 38.787 43.8542 40.2639C43.8542 41.9444 44.6181 43.2685 46.1459 44.2361C47.6737 45.2037 50.3218 46.2222 54.0904 47.2917C57.6042 48.3102 60.2656 49.9266 62.0745 52.1408C63.8814 54.3571 64.7848 56.9167 64.7848 59.8194C64.7848 63.4352 63.7154 66.1852 61.5765 68.0694C59.4376 69.9537 56.7894 71.125 53.632 71.5833V78H47.5209Z" fill="white"/>
<path d="M80.825 84L82.3 82.525C82.5 82.325 82.6 82.0917 82.6 81.825C82.6 81.5583 82.5 81.325 82.3 81.125C82.1 80.925 81.8627 80.825 81.588 80.825C81.3127 80.825 81.075 80.925 80.875 81.125L78.7 83.3C78.6 83.4 78.5293 83.5083 78.488 83.625C78.446 83.7417 78.425 83.8667 78.425 84C78.425 84.1333 78.446 84.2583 78.488 84.375C78.5293 84.4917 78.6 84.6 78.7 84.7L80.875 86.875C81.075 87.075 81.3127 87.175 81.588 87.175C81.8627 87.175 82.1 87.075 82.3 86.875C82.5 86.675 82.6 86.4417 82.6 86.175C82.6 85.9083 82.5 85.675 82.3 85.475L80.825 84ZM87.175 84L85.7 85.475C85.5 85.675 85.4 85.9083 85.4 86.175C85.4 86.4417 85.5 86.675 85.7 86.875C85.9 87.075 86.1377 87.175 86.413 87.175C86.6877 87.175 86.925 87.075 87.125 86.875L89.3 84.7C89.4 84.6 89.4707 84.4917 89.512 84.375C89.554 84.2583 89.575 84.1333 89.575 84C89.575 83.8667 89.554 83.7417 89.512 83.625C89.4707 83.5083 89.4 83.4 89.3 83.3L87.125 81.125C87.025 81.025 86.9127 80.95 86.788 80.9C86.6627 80.85 86.5377 80.825 86.413 80.825C86.2877 80.825 86.1627 80.85 86.038 80.9C85.9127 80.95 85.8 81.025 85.7 81.125C85.5 81.325 85.4 81.5583 85.4 81.825C85.4 82.0917 85.5 82.325 85.7 82.525L87.175 84ZM77 93C76.45 93 75.979 92.8043 75.587 92.413C75.1957 92.021 75 91.55 75 91V77C75 76.45 75.1957 75.979 75.587 75.587C75.979 75.1957 76.45 75 77 75H91C91.55 75 92.021 75.1957 92.413 75.587C92.8043 75.979 93 76.45 93 77V91C93 91.55 92.8043 92.021 92.413 92.413C92.021 92.8043 91.55 93 91 93H77Z" fill="#2D085E"/>
</g>
</g>
<defs>
<clipPath id="clip0_101_7">
<rect width="100" height="100" fill="white" transform="translate(0.5 0.5)"/>
</clipPath>
<clipPath id="clip1_101_7">
<rect width="100" height="100" fill="white" transform="translate(0.5 0.5)"/>
</clipPath>
</defs>
</svg>
